<svg xmlns="http://www.w3.org/2000/svg" version="1.1" height="128.3" width="523.6">
  <path fill-rule="nonzero" fill="#131b28" d="m223.9 46.2l0 0s-3.4 11.9-3.4 11.9 3.4-11.9 3.4-11.9zM241.1 72 241.1 72 241.1 72 241.1 72 241.1 72 241.1 72 241.1 72 241.1 72"/>
  <path fill-rule="nonzero" fill="#131b28" d="m241.1 72s-3.7 0-3.7 0 3.7 0 3.7 0z"/>
  <path fill-rule="nonzero" fill="#131b28" d="m240.2 89.7h0s-22.1 0.1-22.1 0.1 22.1-0.1 22.1-0.1z"/>
  <path fill-rule="nonzero" fill="#131b28" d="m244.8 72s-3.7 0-3.7 0 3.7 0 3.7 0z"/>
  <path fill-rule="nonzero" fill="#131b28" d="m242.1 88.2s3.9-14.7 3.9-14.7-3.9 14.7-3.9 14.7v0z"/>
  <path fill-rule="nonzero" fill="#131b28" d="m323.6 20.5s-7.2 33.8-7.2 33.8 7.2-33.8 7.2-33.8z"/>
  <path fill-rule="nonzero" fill="#131b28" d="m305.2 20.5s-5.5 25.2-5.5 25.2 5.5-25.2 5.5-25.2v0z"/>
  <path fill-rule="nonzero" fill="#131b28" d="m322.4 19h-15.4c-0.9 0-1.7 0.7-1.9 1.5 0 0-5.5 25.2-5.5 25.2s-5.5 25.2-5.5 25.2c-0.2 0.8-1 1.5-1.9 1.5h-9.3-1.6c-10.8 0-9.5-7.4-7.3-17.6 0-0.1 0-0.2 0.1-0.3 0 0 0.2-1.3 0.2-1.3 0-0.1 0-0.2 0-0.2 0 0 0.5-2.6 0.5-2.6s0.5-2.8 0.5-2.8c0.2-0.8 0.4-2.1 0.6-2.9 0 0 2.5-12.1 2.5-12.1s2.5-12.1 2.5-12.1c0.2-0.8-0.4-1.5-1.2-1.5h-15.8c-0.9 0-1.7 0.7-1.9 1.5 0 0-3.4 16.1-3.4 16.1s-3.4 16.1-3.4 16.1c0 0 0 0 0 0 0 0-0.3 1.5-0.3 1.5-3.9 17.8-2.9 34.8 18.3 35.3 0.3 0 0.6 0 0.6 0h33.3c0.9 0 1.7-0.7 1.9-1.5 0 0 7.2-33.8 7.2-33.8s7.2-33.8 7.2-33.8c0.2-0.8-0.4-1.5-1.2-1.5z"/>
  <path fill-rule="nonzero" fill="#131b28" d="m383.6 72.6c0.9 0 1.4 0.7 1.2 1.5 0 0-1.5 7.3-1.5 7.3"/>
  <path fill-rule="nonzero" fill="#131b28" d="m381.9 88.7s1.5-7.3 1.5-7.3-1.5 7.3-1.5 7.3c0 0 0 0 0 0z"/>
  <path fill-rule="nonzero" fill="#131b28" d="m380 90.3c0 0 0 0 0 0-4.5 0-18.1 0.1-28.3 0.1 12.4 0 28.3-0.1 28.3-0.1z"/>
  <path fill-rule="nonzero" fill="#131b28" d="m342.6 63.2c0-0.8 0.9-2.2 1.7-2.2 0 0-1.9 0-1.9 0-0.9 8.7 0.2 2.2 0.2 2.2z"/>
  <path fill-rule="nonzero" fill="#131b28" d="m353.1 90.4c-0.1 0-0.2 0-0.3 0 0.1 0 0.2 0 0.3 0z"/>
  <path fill-rule="nonzero" fill="#131b28" d="m383.6 72.6c0.9 0 1.4 0.7 1.2 1.5 0 0-1.5 7.3-1.5 7.3s-0.2 1.2-0.2 1.2"/>
  <path fill-rule="nonzero" fill="#131b28" d="m360.4 90.4h-0.1 0.1z"/>
  <path fill-rule="nonzero" fill="#131b28" d="m356.6 90.4h-0.2 0.2z"/>
  <path fill-rule="nonzero" fill="#131b28" d="m355.5 90.4c-0.1 0-0.2 0-0.4 0 0.1 0 0.2 0 0.4 0z"/>
  <path fill-rule="nonzero" fill="#131b28" d="m354.3 90.4h-0.3 0.3z"/>
  <path fill-rule="nonzero" fill="#131b28" d="m356.4 90.4c-0.3 0-0.6 0-0.9 0 0.3 0 0.6 0 0.9 0z"/>
  <path fill-rule="nonzero" fill="#131b28" d="m360.3 90.4c-1.2 0-2.5 0-3.7 0 1.2 0 2.5 0 3.7 0z"/>
  <path fill-rule="nonzero" fill="#131b28" d="m380 90.3h0c-3.3 0-11.5 0.1-19.6 0.1 8.2 0 16.3-0.1 19.6-0.1z"/>
  <path fill-rule="nonzero" fill="#131b28" d="m381.9 88.7s1.2-6.1 1.2-6.1-1.2 6.1-1.2 6.1c0 0 0 0 0 0z"/>
  <path fill-rule="nonzero" fill="#131b28" d="m355.1 90.4h-0.8 0.8z"/>
  <path fill-rule="nonzero" fill="#131b28" d="m352.8 90.4h-1.1 1.1z"/>
  <path fill-rule="nonzero" fill="#131b28" d="m354 90.4h-0.9 0.9z"/>
  <path fill-rule="nonzero" fill="#131b28" d="m129.4 63.4s2.4-10.6 2.4-10.6-2.7 12.1-2.7 12.1-2.6 12.3-2.6 12.3 2.3-10.8 2.3-10.8c0.2-0.8 0.5-2.2 0.7-3z"/>
  <path fill-rule="nonzero" fill="#131b28" d="m157.9 18.8h-16.9c-0.9 0-1.7 0.7-1.9 1.5 0 0-1.6 7.1-1.6 7.1s-1.6 7.1-1.6 7.1c-0.2 0.8 0.4 1.5 1.2 1.5h17c0.9 0 1.7-0.7 1.9-1.5 0 0 1.5-7.1 1.5-7.1s1.5-7.1 1.5-7.1v0c0.2-0.8-0.4-1.5-1.2-1.5z"/>
  <path fill-rule="nonzero" fill="#131b28" d="m154.2 42.3v0s-4.9 22.9-4.9 22.9 4.9-22.9 4.9-22.9z"/>
  <path fill-rule="nonzero" fill="#131b28" d="m105.3 118.1s8.5 0.1 13.9 0.1c-4.1 0-10.9-0.1-13.9-0.1 0 0 0 0 0 0z"/>
  <path fill-rule="nonzero" fill="#131b28" d="m134.1 42.3s-2.4 10.6-2.4 10.6 2.4-10.6 2.4-10.6z"/>
  <path fill-rule="nonzero" fill="#131b28" d="m153 40.8h-17c-0.9 0-1.7 0.7-1.9 1.5 0 0-2.4 10.6-2.4 10.6s-2.4 10.6-2.4 10.6c-0.2 0.8-0.5 2.2-0.7 3 0 0-2.3 10.8-2.3 10.8s-2.3 10.8-2.3 10.8c-0.2 0.8-0.5 2.2-0.8 3 0 0-3.2 9.4-8.5 9.3-0.2 0-0.4 0-0.7 0-2.6 0-4.6-0.1-4.6-0.1h0c-0.9 0-1.7 0.7-1.9 1.5 0 0-1.8 7.4-1.8 7.4s-1.8 7.4-1.8 7.4c-0.2 0.8 0.3 1.5 1.2 1.5 3 0 9.8 0.1 13.9 0.1 13.3 0 20.4-7.4 24.9-28.6 0 0 5.3-24.4 5.3-24.4s4.9-22.9 4.9-22.9c0.2-0.8-0.4-1.5-1.2-1.5z"/>
  <path fill-rule="nonzero" fill="#131b28" d="m394.5 89.5c-0.9 0-1.4-0.7-1.2-1.5 0 0 12.8-59.9 12.8-59.9"/>
  <path fill-rule="nonzero" fill="#131b28" d="m412.2 88s5.2-25.6 5.2-25.6-5.2 25.6-5.2 25.6z"/>
  <path fill-rule="nonzero" fill="#131b28" d="m393.4 88.8c-0.1-0.4 0-1.4 0.1-2.3 0 0 6.1-28.4 6.1-28.4s-6.4 29.9-6.4 29.9c-0.2 0.8 0.4 1.5 1.2 1.5h1.6c-0.9 0-2.5-0.3-2.6-0.8z"/>
  <path fill-rule="nonzero" fill="#131b28" d="m411.2 89.2c-0.5 0.2-1.5 0.3-2.4 0.3h1.6c0.9 0 1.7-0.7 1.9-1.5 0 0 0.3-1.5 0.3-1.5-0.2 0.8-0.9 2.5-1.3 2.7z"/>
  <path fill-rule="nonzero" fill="#131b28" d="m414.8 75.2s2.3-11.3 2.3-11.3c0 0 0 0 0 0 0 0-2.3 11.3-2.3 11.3z"/>
  <path fill-rule="nonzero" fill="#131b28" d="m465.3 32.1s0.7 2.9 0.7 2.9c0.2 0.8-0.3 1.5-1.2 1.5"/>
  <path fill-rule="nonzero" fill="#131b28" d="m412.6 86.5s2.3-11.3 2.3-11.3-2.3 11.3-2.3 11.3z"/>
  <path fill-rule="nonzero" fill="#131b28" d="m464.6 29.1s0.7 3 0.7 3-0.7-3-0.7-3z"/>
  <path fill-rule="nonzero" fill="#131b28" d="m417.1 63.9c0.2-0.8 0.5-2.2 0.6-3 0 0 2.4-11.4 2.4-11.4s-2.8 12.9-2.8 12.9-0.3 1.5-0.3 1.5z"/>
  <path fill-rule="nonzero" fill="#131b28" d="m406.2 27.1c-0.2 0.8-0.4 1.8-0.5 2.5 0 0-6.1 28.4-6.1 28.4s6.4-29.9 6.4-29.9 0.2-1 0.2-1z"/>
  <path fill-rule="nonzero" fill="#131b28" d="m466 35s-0.7-2.9-0.7-2.9-0.7-3-0.7-3-0.4-1.5-0.4-1.5c-1.4-5.4-5.4-8.5-14.2-8.5 0 0-13.7 0-13.7 0s-12.6 0-12.6 0h-1.1-13.1c-0.9 0-1.7 0.7-1.9 1.5h0s-0.6 3-0.6 3-0.7 3.5-0.7 3.5-0.2 1-0.2 1-6.4 29.9-6.4 29.9-6.1 28.4-6.1 28.4c-0.2 0.8-0.2 1.9-0.1 2.3 0.1 0.4 1.7 0.8 2.6 0.8h12.8c0.9 0 1.9-0.2 2.4-0.3 0.5-0.2 1.2-1.9 1.3-2.7 0 0 2.3-11.3 2.3-11.3s2.3-11.3 2.3-11.3c0 0 0 0 0 0 0 0 0.3-1.5 0.3-1.5s2.8-12.9 2.8-12.9 2.4-11.4 2.4-11.4c0.2-0.8 1-1.5 1.9-1.5 0 0 40.3 0 40.3 0 0.9 0 1.4-0.7 1.2-1.5z"/>
  <path fill-rule="nonzero" fill="#131b28" d="m517.9 8.7c-0.9 0-2.2 0-3.1 0h-12.9c-0.9 0-1.9 0.6-2.4 1.3 0 0-28.5 41.8-28.5 41.8-0.5 0.7-1 0.6-1.2-0.2 0 0-2.1-9.2-2.1-9.2-0.2-0.8-1-1.5-1.9-1.5h-18.3c-0.9 0-1.4 0.7-1.1 1.5 0 0 8.2 28.8 8.2 28.8 0.2 0.8 0.3 2.2 0 3 0 0-3.6 13.9-3.6 13.9-0.2 0.8 0.3 1.5 1.2 1.5h18.1c0.9 0 1.7-0.7 1.9-1.5 0 0 3.6-13.9 3.6-13.9 0.2-0.8 0.8-2.1 1.3-2.7 0 0 46.3-61.5 46.3-61.5 0.5-0.7 0.2-1.2-0.6-1.2 0 0-4.9 0-4.9 0z"/>
  <path fill-rule="nonzero" fill="#131b28" d="m372.2 44.8s0 0 0 0c-0.1 0.9-1 1.6-1.8 1.6h-23.2c-0.8 0-1.2-0.5-1.1-1.2 0 0 0 0 0-0.1 0 0 0 0 0 0 0 0 0-0.1 0-0.1 0 0 0-0.2 0.1-0.4 2.2-5.9 6.7-9.8 15.2-9.8 9.6 0 11.4 4.7 10.8 9.9zm-6.8-26.8c-29.8 0-36.9 18.1-40.9 36.4-4 18.6-3.6 36.1 27.3 36.1h1.1c0.1 0 0.2 0 0.3 0h0.9 0.3 0.8c0.1 0 0.2 0 0.4 0 0.3 0 0.6 0 0.9 0h0.2c1.2 0 2.5 0 3.7 0h0.1c8.2 0 16.3-0.1 19.6-0.1 0.8 0 1.7-0.7 1.9-1.5 0 0 1.3-6.1 1.3-6.1s0.2-1.2 0.2-1.2 1.5-7.3 1.5-7.3c0.2-0.8-0.4-1.5-1.2-1.5h-27.8c-11 0-14.3-2.9-13.1-11.6h44.4s0 0 0 0c0 0 0 0 0 0 0.7 0 1.4-0.5 1.6-1.1 0-0.1 0.1-0.3 0.1-0.4 0 0 0 0 0 0 6.6-24.9 4.7-41.6-23.5-41.6z"/>
  <path fill-rule="nonzero" fill="#131b28" d="m224.3 44.7s-0.4 1.5-0.4 1.5c0 0 0 0 0 0s-3.4 11.9-3.4 11.9-3.3 11.9-3.3 11.9c-0.2 0.8-1.1 1.5-2 1.5h-17.7c-13.5 0-16.7-10.5-13.5-26 3.3-15.9 9.7-25.7 22.9-26.7 18.1-1.4 21.7 11.4 17.3 26.1zm12.2 25.8s8.4-20.3 10.3-32c2.6-15.7-5.3-38.5-35.6-38.5-30.2 0-43.3 21.7-48.3 45.4-5 23.8 1.6 44.7 31.6 44.5 0 0 23.7-0.1 23.7-0.1s22.1-0.1 22.1-0.1c0.9 0 1.7-0.7 1.9-1.5 0 0 3.9-14.7 3.9-14.7 0.2-0.8-0.3-1.5-1.2-1.5 0 0-3.7 0-3.7 0s-3.7 0-3.7 0c-0.7 0-1.1-0.5-1.1-1.1 0-0.1 0-0.2 0.1-0.3z"/>
  <path fill-rule="nonzero" fill="#131b28" d="m385.9 56.9c0 0.6-0.5 1-1 1-0.6 0-1-0.5-1-1 0-0.6 0.5-1 1-1 0.6 0 1 0.5 1 1z"/>
  <path fill-rule="nonzero" fill="#0868ac" d="m6 30.5c-8.3 12-7.3 27.6-0.9 40.3 0.2 0.3 0.3 0.6 0.5 0.9 0.1 0.2 0.2 0.4 0.3 0.6 0.1 0.1 0.1 0.2 0.2 0.3 0.1 0.2 0.2 0.4 0.3 0.6 0.2 0.3 0.4 0.7 0.6 1 0.1 0.2 0.2 0.4 0.3 0.6 0.2 0.4 0.5 0.7 0.7 1.1 0.1 0.2 0.2 0.3 0.3 0.5 0.3 0.5 0.7 1 1 1.5 0 0 0 0 0 0 0.1 0.1 0.1 0.2 0.2 0.2 0.3 0.4 0.6 0.8 0.9 1.2 0.1 0.1 0.2 0.3 0.4 0.4 0.3 0.4 0.6 0.7 0.9 1.1 0.1 0.1 0.2 0.3 0.3 0.4 0.4 0.5 0.8 0.9 1.2 1.4 0 0 0 0 0 0 0 0 0 0 0 0.1 0.4 0.4 0.8 0.9 1.2 1.3 0.1 0.1 0.3 0.3 0.4 0.4 0.3 0.3 0.6 0.6 1 1 0.1 0.1 0.3 0.3 0.4 0.4 0.4 0.4 0.9 0.8 1.3 1.2 0 0 0 0 0 0 0.1 0.1 0.2 0.1 0.2 0.2 0.4 0.3 0.8 0.7 1.2 1 0.2 0.1 0.3 0.3 0.5 0.4 0.3 0.3 0.7 0.5 1 0.8 0.2 0.1 0.4 0.3 0.5 0.4 0.4 0.3 0.8 0.5 1.1 0.8 0.1 0.1 0.3 0.2 0.4 0.3 0 0 0.1 0.1 0.1 0.1 0.4 0.2 0.7 0.5 1.1 0.7 0.2 0.1 0.3 0.2 0.5 0.3 0.6 0.4 1.1 0.7 1.7 1.1 0.2 0.1 0.3 0.2 0.5 0.3 0.4 0.2 0.9 0.5 1.3 0.7 0.2 0.1 0.5 0.2 0.7 0.4 0.3 0.2 0.6 0.3 0.9 0.5 0.1 0 0.1 0.1 0.2 0.1 0.1 0.1 0.3 0.1 0.4 0.2 0.5 0.2 1 0.5 1.5 0.7 0.1 0 0.2 0.1 0.3 0.1 0.6 0.2 1.1 0.5 1.7 0.7 0.1 0.1 0.3 0.1 0.4 0.2 0.5 0.2 1.1 0.4 1.6 0.6 0.1 0 0.1 0 0.2 0.1 0.6 0.2 1.2 0.4 1.8 0.6 0.1 0 0.3 0.1 0.4 0.1 0.6 0.2 1.2 0.4 1.9 0.5 40.3 7.4 52-24.2 52-24.2-9.8 12.8-27.3 16.2-43.8 12.4-0.6-0.1-1.2-0.3-1.8-0.5-0.2 0-0.3-0.1-0.5-0.1-0.6-0.2-1.2-0.4-1.8-0.6-0.1 0-0.2-0.1-0.2-0.1-0.5-0.2-1-0.4-1.6-0.6-0.1-0.1-0.3-0.1-0.4-0.2-0.6-0.2-1.1-0.5-1.7-0.7-0.1 0-0.2-0.1-0.3-0.1-0.5-0.2-1-0.4-1.4-0.7-0.1-0.1-0.3-0.1-0.4-0.2-0.4-0.2-0.7-0.4-1.1-0.6-0.2-0.1-0.5-0.3-0.7-0.4-0.4-0.2-0.9-0.5-1.3-0.7-0.1-0.1-0.3-0.2-0.4-0.2-0.6-0.3-1.2-0.7-1.7-1.1-0.2-0.1-0.3-0.2-0.5-0.3-0.4-0.3-0.8-0.5-1.2-0.8-0.1-0.1-0.3-0.2-0.4-0.3-0.4-0.3-0.8-0.6-1.2-0.8-0.2-0.1-0.3-0.3-0.5-0.4-0.4-0.3-0.7-0.5-1-0.8-0.2-0.1-0.3-0.2-0.5-0.4-0.4-0.4-0.9-0.7-1.3-1.1 0 0-0.1-0.1-0.1-0.1-0.5-0.4-0.9-0.8-1.4-1.2-0.1-0.1-0.3-0.2-0.4-0.4-0.3-0.3-0.7-0.6-1-1-0.1-0.1-0.3-0.3-0.4-0.4-0.4-0.4-0.8-0.8-1.2-1.3 0 0 0 0-0.1-0.1-0.4-0.5-0.8-0.9-1.2-1.4-0.1-0.1-0.2-0.3-0.3-0.4-0.3-0.4-0.6-0.7-0.9-1.1-0.1-0.1-0.2-0.3-0.3-0.4-0.3-0.4-0.7-0.9-1-1.4-9.2-12.5-12.5-29.8-5.1-44"/>
  <path fill-rule="nonzero" fill="#0868ac" d="m31.9 20.4c-6 8.7-5.7 20.3-1 29.5 0.8 1.5 1.7 3 2.7 4.5 0.9 1.3 1.9 2.8 3.1 3.9 0.4 0.5 0.9 0.9 1.4 1.4 0.1 0.1 0.2 0.2 0.4 0.4 0.5 0.4 0.9 0.9 1.4 1.3 0 0 0 0 0.1 0 0 0 0 0 0 0 0.5 0.5 1.1 0.9 1.6 1.3 0.1 0.1 0.2 0.2 0.4 0.3 0.6 0.4 1.1 0.8 1.7 1.2 0 0 0 0 0 0 0.3 0.2 0.5 0.3 0.8 0.5 0.1 0.1 0.2 0.2 0.4 0.2 0.4 0.3 0.8 0.5 1.3 0.8 0.1 0 0.1 0.1 0.2 0.1 0.4 0.2 0.7 0.4 1.1 0.6 0.1 0.1 0.3 0.1 0.4 0.2 0.3 0.1 0.5 0.3 0.8 0.4 0 0 0.1 0 0.1 0.1 0.5 0.3 1.1 0.5 1.6 0.8 0.1 0.1 0.2 0.1 0.4 0.1 0.4 0.2 0.9 0.4 1.3 0.5 0.2 0.1 0.4 0.1 0.6 0.2 0.4 0.1 0.8 0.3 1.2 0.4 0.2 0.1 0.4 0.1 0.5 0.2 0.6 0.2 1.2 0.4 1.8 0.5 31.1 5.2 38.3-18.8 38.3-18.8-6.5 9.3-19 13.8-32.4 10.3-0.6-0.2-1.2-0.3-1.8-0.5-0.2-0.1-0.4-0.1-0.5-0.2-0.4-0.1-0.8-0.3-1.2-0.4-0.2-0.1-0.4-0.1-0.6-0.2-0.4-0.2-0.9-0.3-1.3-0.5-0.1-0.1-0.2-0.1-0.4-0.2-0.5-0.2-1.1-0.5-1.6-0.8-0.3-0.1-0.5-0.3-0.8-0.4-0.2-0.1-0.3-0.2-0.5-0.2-0.3-0.2-0.7-0.4-1-0.6-0.1 0-0.2-0.1-0.2-0.1-0.4-0.2-0.8-0.5-1.2-0.8-0.1-0.1-0.2-0.2-0.4-0.3-0.3-0.2-0.5-0.4-0.8-0.5-0.6-0.4-1.1-0.8-1.7-1.2-0.1-0.1-0.3-0.2-0.4-0.3-5.9-4.6-10.5-10.9-12.7-18.1-2.3-7.4-1.8-15.8 2.2-22.6"/>
  <path fill-rule="nonzero" fill="#0868ac" d="m53.6 12.9c-3.6 5.2-3.9 11.7-1.4 17.5 2.6 6.1 7.9 10.9 14.1 13.2 0.3 0.1 0.5 0.2 0.8 0.3 0.1 0 0.2 0.1 0.3 0.1 0.4 0.1 0.7 0.2 1.1 0.3 17.2 3.3 21.8-8.8 23.1-10.6-4.1 5.9-10.9 7.3-19.4 5.2-0.7-0.2-1.4-0.4-2-0.6-0.8-0.3-1.6-0.6-2.4-1-1.5-0.7-2.9-1.6-4.2-2.6-7.5-5.7-12.2-16.6-7.3-25.5"/>
  <path fill-rule="nonzero" fill="#0868ac" d="m247.2 114.7s-5 11.3-5 11.3h-5.5s0.4-10.3 0.4-10.3-4 10.3-4 10.3h-5.3s-0.1-11.3-0.1-11.3 0.6-2.8 0.6-2.8h3.8s-0.7 11.1-0.7 11.1 4.2-11.1 4.2-11.1h5.2s-0.4 11.3-0.4 11.3 4.1-11.3 4.1-11.3h3.3s-0.6 2.8-0.6 2.8z"/>
  <path fill-rule="nonzero" fill="#0868ac" d="m255.8 118.1c0.5-2.2 0.3-2.6-0.8-2.6h-1.7s-1.1 5.2-1.1 5.2-1.7 5.4-1.7 5.4h-3.2s2.6-12.2 2.6-12.2 0.4-1.8 0.4-1.8h2.9s0.4 0.8 0.4 0.8 1.7-1 3.3-1c3.5 0 3.2 2.6 2.5 6.3h-3.6z"/>
  <path fill-rule="nonzero" fill="#0868ac" d="m266.2 110.2c-1.4 0-2.3-0.4-2-2.1 0.4-1.7 1.5-2.1 2.9-2.1 1.4 0 2.3 0.4 1.9 2.1-0.3 1.7-1.4 2.1-2.8 2.1zm-1.5 15.8h-3.2s0.6-5.5 0.6-5.5 1.1-5.1 1.1-5.1-2.2-0.5-2.2-0.5 0.6-3 0.6-3h6s-3 14.1-3 14.1z"/>
  <path fill-rule="nonzero" fill="#0868ac" d="m278.4 114.9s-4 0.5-4 0.5-1.1 5.4-1.1 5.4c-0.3 1.5-0.3 1.9 1 1.9h2.6s-0.6 2.8-0.6 2.8-2.4 0.7-3.4 0.7c-4.1 0-4-2.2-3.3-5.6 0 0 1.1-5.3 1.1-5.3s-2.2-0.5-2.2-0.5 0.7-3 0.7-3h2.3s1.3-3.5 1.3-3.5h3.1s-0.8 3.5-0.8 3.5h3.9s-0.7 3-0.7 3z"/>
  <path fill-rule="nonzero" fill="#0868ac" d="m286.6 115.1c-1.9 0-2.8 1-3.2 2.7 0 0 5.3-0.4 5.3-0.4 0.2-1.2 0-2.2-2.1-2.2zm-3.7 5.2c-0.2 1.7 0.4 2.3 2.6 2.3h5.5s-0.5 2.6-0.5 2.6-3.3 0.9-5.8 0.9c-6.2 0-6.2-3.5-5.4-7.2 0.8-3.6 2.2-7.3 8.2-7.3 5.7 0 6 3.5 4.6 8.6h-9.1z"/>
  <path fill-rule="nonzero" fill="#0868ac" d="m304.6 126h-3.2s0.6-5.5 0.6-5.5 2.2-10.5 2.2-10.5-2.2-0.5-2.2-0.5 0.7-3 0.7-3h6s-4.2 19.5-4.2 19.5z"/>
  <path fill-rule="nonzero" fill="#0868ac" d="m316.1 115.1c-1.9 0-2.8 1-3.2 2.7 0 0 5.3-0.4 5.3-0.4 0.2-1.2 0-2.2-2.1-2.2zm-3.7 5.2c-0.2 1.7 0.4 2.3 2.6 2.3h5.5s-0.6 2.6-0.6 2.6-3.3 0.9-5.8 0.9c-6.2 0-6.2-3.5-5.4-7.2 0.8-3.6 2.2-7.3 8.2-7.3 5.7 0 6 3.5 4.6 8.6h-9.1z"/>
  <path fill-rule="nonzero" fill="#0868ac" d="m336 115.3s-4 0-5.1 0c-2.3 0-2.6 0.7-2.8 1.5 0 0-0.1 0.7-0.1 0.7s7.4 0.6 7.4 0.6 0 2.4-0.3 3.7c-0.4 2.2-2.8 4.5-6.9 4.5-2.1 0-5.4-0.8-5.4-0.8s0.6-2.7 0.6-2.7h5.1c2.3 0 2.6-0.6 2.7-1.2 0 0 0.2-0.9 0.2-0.9s-7.3-0.6-7.3-0.6-0.3-1.8 0.1-3.6c0.6-2.5 2.8-4.6 7-4.6 2.1 0 5.4 0.8 5.4 0.8s-0.6 2.7-0.6 2.7z"/>
  <path fill-rule="nonzero" fill="#0868ac" d="m349.8 115.3s-4 0-5.1 0c-2.3 0-2.6 0.7-2.8 1.5 0 0-0.1 0.7-0.1 0.7s7.4 0.6 7.4 0.6 0 2.4-0.3 3.7c-0.4 2.2-2.8 4.5-6.9 4.5-2.1 0-5.4-0.8-5.4-0.8s0.6-2.7 0.6-2.7h5.1c2.3 0 2.6-0.6 2.7-1.2 0 0 0.2-0.9 0.2-0.9s-7.3-0.6-7.3-0.6-0.3-1.8 0.1-3.6c0.6-2.5 2.8-4.6 7-4.6 2.1 0 5.4 0.8 5.4 0.8s-0.6 2.7-0.6 2.7z"/>
  <path fill-rule="nonzero" fill="#0868ac" d="m354.1 128.3h-2.8s0.1-2.1 0.1-2.1c-1-0.1-1.5-0.8-1.3-2 0.4-1.7 1.4-2.1 2.9-2.1 1.4 0 2.3 0.4 1.9 2.1 0 0-0.9 4.1-0.9 4.1z"/>
  <path fill-rule="nonzero" fill="#0868ac" d="m372.5 115.4c-2.1 0-2.8 1.2-3.3 3.5-0.5 2.3-0.3 3.6 1.7 3.6h2.9s1.6-7.1 1.6-7.1h-2.9zm4.7 8.8s-0.4 1.8-0.4 1.8-2.9 0-2.9 0-0.4-0.9-0.4-0.9-2.5 1.1-4.3 1.1c-4.4 0-4.6-3.6-3.8-7.3 0.8-3.7 2.5-7.2 6.9-7.2 1.6 0 3.7 0.8 3.7 0.8s1.8-5.9 1.8-5.9h3.2s-3.7 17.6-3.7 17.6z"/>
  <path fill-rule="nonzero" fill="#0868ac" d="m388.6 115.3c-2.7 0-3.5 1.5-4 3.7-0.4 2.2-0.2 3.8 2.4 3.8 2.8 0 3.6-1.5 4.1-3.7 0.5-2.1 0.3-3.7-2.4-3.7zm-2.3 10.9c-5.7 0-6.1-3.5-5.4-7.2 0.8-3.7 2.8-7.2 8.5-7.2 5.6 0 6.2 3.5 5.4 7.2-0.8 3.8-2.8 7.2-8.5 7.2z"/>
  <path fill-rule="nonzero" fill="#0868ac" d="m418.5 126s0.6-5.4 0.6-5.4 0.3-1.5 0.3-1.5c0.4-2.1 0.7-3.6-1.4-3.6h-1.7c0.1 1.1-0.1 2.3-0.4 3.5 0 0-1.5 7-1.5 7h-3.2s0.6-5.4 0.6-5.4 0.3-1.5 0.3-1.5c0.4-2.1 0.7-3.6-1.4-3.6h-1.4s-2.3 10.6-2.3 10.6h-3.7s3-14.1 3-14.1h2.9s0.4 0.9 0.4 0.9 2-1 3.5-1c1.2 0 2.1 0.6 2.4 1.2 0.7-0.4 2.6-1.2 4.1-1.2 4.4 0 4.3 3.6 3.5 7.2 0 0-1.5 7-1.5 7h-3.2z"/>
  <path fill-rule="nonzero" fill="#0868ac" d="m433.1 115.3c-2.7 0-3.5 1.5-4 3.7-0.4 2.2-0.2 3.8 2.4 3.8 2.8 0 3.6-1.5 4.1-3.7 0.5-2.1 0.3-3.7-2.4-3.7zm-2.3 10.9c-5.7 0-6.1-3.5-5.4-7.2 0.8-3.7 2.8-7.2 8.5-7.2 5.6 0 6.2 3.5 5.4 7.2-0.8 3.8-2.8 7.2-8.5 7.2z"/>
  <path fill-rule="nonzero" fill="#0868ac" d="m448.8 118.1c0.5-2.2 0.3-2.6-0.8-2.6h-1.7s-1.1 5.2-1.1 5.2-1.7 5.4-1.7 5.4h-3.2s2.6-12.2 2.6-12.2 0.4-1.8 0.4-1.8h2.9s0.4 0.8 0.4 0.8 1.7-1 3.3-1c3.5 0 3.2 2.6 2.5 6.3h-3.6z"/>
  <path fill-rule="nonzero" fill="#0868ac" d="m461.1 115.1c-1.9 0-2.8 1-3.2 2.7 0 0 5.3-0.4 5.3-0.4 0.2-1.2 0-2.2-2.1-2.2zm-3.7 5.2c-0.2 1.7 0.4 2.3 2.6 2.3h5.5s-0.5 2.6-0.5 2.6-3.3 0.9-5.8 0.9c-6.2 0-6.2-3.5-5.4-7.2 0.8-3.6 2.2-7.3 8.2-7.3 5.7 0 6 3.5 4.6 8.6h-9.1z"/>
  <path fill-rule="nonzero" fill="#0868ac" d="m469.6 126.2c-1.4 0-2.3-0.4-2-2.1 0.3-1.7 1.4-2.1 2.9-2.1 1.3 0 2.3 0.4 1.9 2.1-0.4 1.7-1.5 2.1-2.8 2.1z"/>
</svg>
